<svg xmlns="http://www.w3.org/2000/svg" width="1024" height="1024" viewBox="0 0 1024 1024">
  <defs>
    <linearGradient id="bg" x1="0" y1="0" x2="0" y2="1">
      <stop offset="0" stop-color="#323b4c"/>
      <stop offset="1" stop-color="#191d25"/>
    </linearGradient>
  </defs>

  <!-- app squircle -->
  <rect x="96" y="96" width="832" height="832" rx="190" fill="url(#bg)"/>
  <rect x="96.5" y="96.5" width="831" height="831" rx="189.5" fill="none"
        stroke="#ffffff" stroke-opacity="0.06" stroke-width="3"/>

  <!-- explorer sidebar -->
  <rect x="180" y="296" width="178" height="432" rx="30" fill="#2b3340"/>
  <rect x="214" y="356" width="110" height="26" rx="13" fill="#5a6679"/>
  <rect x="236" y="416" width="88"  height="26" rx="13" fill="#48536540"/>
  <rect x="236" y="416" width="88"  height="26" rx="13" fill="#4a5568"/>
  <rect x="214" y="476" width="120" height="26" rx="13" fill="#5a6679"/>
  <rect x="236" y="536" width="80"  height="26" rx="13" fill="#4a5568"/>
  <rect x="236" y="596" width="100" height="26" rx="13" fill="#4a5568"/>

  <!-- editor — code lines -->
  <rect x="406" y="344" width="318" height="46" rx="23" fill="#56b6c2"/>
  <rect x="462" y="442" width="244" height="46" rx="23" fill="#5b6678"/>
  <rect x="462" y="540" width="206" height="46" rx="23" fill="#e5c050"/>
  <rect x="406" y="638" width="292" height="46" rx="23" fill="#5b6678"/>
</svg>
